HIERARCHY
ROOT Hips
{
	OFFSET 0.000000 0.000000 0.000000
	CHANNELS 6 Xposition Yposition Zposition Zrotation Yrotation Xrotation
	JOINT LeftUpLeg
	{
		OFFSET 0.103459 1.857827 10.548521
		CHANNELS 6 Xposition Yposition Zposition Zrotation Yrotation Xrotation
		JOINT LeftLeg
		{
			OFFSET 43.499979 0.000107 0.000090
			CHANNELS 6 Xposition Yposition Zposition Zrotation Yrotation Xrotation
			JOINT LeftFoot
			{
				OFFSET 42.372168 0.000034 0.000010
				CHANNELS 6 Xposition Yposition Zposition Zrotation Yrotation Xrotation
				JOINT LeftToe
				{
					OFFSET 17.299924 -0.000089 0.000018
					CHANNELS 6 Xposition Yposition Zposition Zrotation Yrotation Xrotation
					End Site
					{
						OFFSET 6.000000 0.000000 0.000000
					}
				}
			}
		}
	}
	JOINT RightUpLeg
	{
		OFFSET 0.103456 1.857863 -10.548456
		CHANNELS 6 Xposition Yposition Zposition Zrotation Yrotation Xrotation
		JOINT RightLeg
		{
			OFFSET 43.500042 -0.000002 0.000029
			CHANNELS 6 Xposition Yposition Zposition Zrotation Yrotation Xrotation
			JOINT RightFoot
			{
				OFFSET 42.372205 0.000033 0.000070
				CHANNELS 6 Xposition Yposition Zposition Zrotation Yrotation Xrotation
				JOINT RightToe
				{
					OFFSET 17.299951 -0.000065 0.000070
					CHANNELS 6 Xposition Yposition Zposition Zrotation Yrotation Xrotation
					End Site
					{
						OFFSET 6.000000 0.000000 0.000000
					}
				}
			}
		}
	}
	JOINT Spine
	{
		OFFSET 6.901935 -2.603664 0.000033
		CHANNELS 6 Xposition Yposition Zposition Zrotation Yrotation Xrotation
		JOINT Spine1
		{
			OFFSET 12.588142 0.000010 -0.000051
			CHANNELS 6 Xposition Yposition Zposition Zrotation Yrotation Xrotation
			JOINT Spine2
			{
				OFFSET 12.343166 -0.000098 0.000026
				CHANNELS 6 Xposition Yposition Zposition Zrotation Yrotation Xrotation
				JOINT Neck
				{
					OFFSET 25.832894 0.000061 0.000061
					CHANNELS 6 Xposition Yposition Zposition Zrotation Yrotation Xrotation
					JOINT Head
					{
						OFFSET 11.766657 -0.000023 -0.000040
						CHANNELS 6 Xposition Yposition Zposition Zrotation Yrotation Xrotation
						End Site
						{
							OFFSET 12.000000 0.000000 0.000000
						}
					}
				}
				JOINT LeftShoulder
				{
					OFFSET 19.745926 -1.480308 6.000100
					CHANNELS 6 Xposition Yposition Zposition Zrotation Yrotation Xrotation
					JOINT LeftArm
					{
						OFFSET 11.284141 -0.000067 -0.000035
						CHANNELS 6 Xposition Yposition Zposition Zrotation Yrotation Xrotation
						JOINT LeftForeArm
						{
							OFFSET 33.000033 0.000026 -0.000005
							CHANNELS 6 Xposition Yposition Zposition Zrotation Yrotation Xrotation
							JOINT LeftHand
							{
								OFFSET 25.200056 0.000059 -0.000020
								CHANNELS 6 Xposition Yposition Zposition Zrotation Yrotation Xrotation
								End Site
								{
									OFFSET 9.000000 0.000000 0.000000
								}
							}
						}
					}
				}
				JOINT RightShoulder
				{
					OFFSET 19.746108 -1.480276 -5.999995
					CHANNELS 6 Xposition Yposition Zposition Zrotation Yrotation Xrotation
					JOINT RightArm
					{
						OFFSET 11.284248 -0.000015 -0.000063
						CHANNELS 6 Xposition Yposition Zposition Zrotation Yrotation Xrotation
						JOINT RightForeArm
						{
							OFFSET 33.000071 0.000058 0.000097
							CHANNELS 6 Xposition Yposition Zposition Zrotation Yrotation Xrotation
							JOINT RightHand
							{
								OFFSET 25.199705 0.000114 0.000349
								CHANNELS 6 Xposition Yposition Zposition Zrotation Yrotation Xrotation
								End Site
								{
									OFFSET 9.000000 0.000000 0.000000
								}
							}
						}
					}
				}
			}
		}
	}
}
MOTION
Frames: 7
Frame Time: 0.0333333
0.9511 91.5853 0.0000 91.5224 0.6521 92.2224 0.1035 1.8578 10.5485 175.5629 -3.0684 172.9601 43.5000 0.0001 0.0001 -16.0277 0.9075 2.3035 42.3722 0.0000 0.0000 76.0230 -2.7974 -3.4136 17.2999 -0.0001 0.0000 21.4546 0.0031 -0.0001 0.1035 1.8579 -10.5485 177.8290 3.0422 -176.8214 43.5000 -0.0000 0.0000 -14.5718 4.1893 6.2428 42.3722 0.0000 0.0001 78.1072 -4.2278 1.8838 17.3000 -0.0001 0.0001 21.4546 -0.0031 0.0000 6.9019 -2.6037 0.0000 5.5530 -1.6527 0.2355 12.5881 0.0000 -0.0001 0.9434 0.4744 0.7952 12.3432 -0.0001 0.0000 0.7090 -0.9358 0.6318 25.8329 0.0001 0.0001 0.9662 6.3279 -2.4273 11.7667 -0.0000 -0.0000 14.4981 -16.0230 3.0611 19.7459 -1.4803 6.0001 -54.3319 -83.3861 -128.1344 11.2841 -0.0001 -0.0000 -29.9859 77.3601 -31.4154 33.0000 0.0000 -0.0000 -21.6812 -9.0098 -3.7744 25.2001 0.0001 -0.0000 12.8595 1.5532 18.3587 19.7461 -1.4803 -6.0000 -90.9428 80.3702 91.6628 11.2842 -0.0000 -0.0001 -5.7033 -40.1454 15.5036 33.0001 0.0001 0.0001 -15.8062 3.8978 10.4399 25.1997 0.0001 0.0003 12.2982 10.3537 -7.4738
0.9736 91.5921 0.0000 91.5675 0.6521 92.2224 0.1035 1.8578 10.5485 175.5637 -3.0505 172.9585 43.5000 0.0001 0.0001 -16.0277 0.9075 2.3035 42.3722 0.0000 0.0000 76.0209 -2.8088 -3.4379 17.2999 -0.0001 0.0000 21.4546 0.0031 -0.0001 0.1035 1.8579 -10.5485 177.8296 3.0602 -176.8222 43.5000 -0.0000 0.0000 -14.5718 4.1893 6.2428 42.3722 0.0000 0.0001 78.1128 -4.2385 1.8591 17.3000 -0.0001 0.0001 21.4546 -0.0031 0.0000 6.9019 -2.6037 0.0000 5.5548 -1.6975 0.2317 12.5881 0.0000 -0.0001 0.9434 0.4744 0.7952 12.3432 -0.0001 0.0000 0.7111 -0.9693 0.6280 25.8329 0.0001 0.0001 0.9662 6.3279 -2.4273 11.7667 -0.0000 -0.0000 14.4873 -16.0672 3.1428 19.7459 -1.4803 6.0001 -54.1195 -83.3634 -128.3506 11.2841 -0.0001 -0.0000 -29.8007 77.3759 -31.2230 33.0000 0.0000 -0.0000 -21.6812 -9.0098 -3.7744 25.2001 0.0001 -0.0000 12.8595 1.5532 18.3587 19.7461 -1.4803 -6.0000 -91.1430 80.3734 91.4622 11.2842 -0.0000 -0.0001 -5.7358 -40.6079 15.5057 33.0001 0.0001 0.0001 -15.2540 1.2363 11.0269 25.1997 0.0001 0.0003 12.2982 10.3537 -7.4738
0.9893 91.5968 0.0000 91.5989 0.6521 92.2224 0.1035 1.8578 10.5485 175.5642 -3.0380 172.9574 43.5000 0.0001 0.0001 -16.0277 0.9075 2.3035 42.3722 0.0000 0.0000 76.0194 -2.8167 -3.4549 17.2999 -0.0001 0.0000 21.4546 0.0031 -0.0001 0.1035 1.8579 -10.5485 177.8301 3.0727 -176.8229 43.5000 -0.0000 0.0000 -14.5718 4.1893 6.2428 42.3722 0.0000 0.0001 78.1167 -4.2459 1.8420 17.3000 -0.0001 0.0001 21.4546 -0.0031 0.0000 6.9019 -2.6037 0.0000 5.5561 -1.7287 0.2290 12.5881 0.0000 -0.0001 0.9434 0.4744 0.7952 12.3432 -0.0001 0.0000 0.7125 -0.9926 0.6253 25.8329 0.0001 0.0001 0.9662 6.3279 -2.4273 11.7667 -0.0000 -0.0000 14.4798 -16.0980 3.1996 19.7459 -1.4803 6.0001 -53.9724 -83.3476 -128.5004 11.2841 -0.0001 -0.0000 -29.6714 77.3869 -31.0886 33.0000 0.0000 -0.0000 -21.6812 -9.0098 -3.7744 25.2001 0.0001 -0.0000 12.8595 1.5532 18.3587 19.7461 -1.4803 -6.0000 -91.2825 80.3755 91.3224 11.2842 -0.0000 -0.0001 -5.7874 -41.3357 15.5097 33.0001 0.0001 0.0001 -14.4421 -2.9614 11.9057 25.1997 0.0001 0.0003 12.2982 10.3537 -7.4738
0.9980 91.5994 0.0000 91.6164 0.6521 92.2224 0.1035 1.8578 10.5485 175.5645 -3.0310 172.9568 43.5000 0.0001 0.0001 -16.0277 0.9075 2.3035 42.3722 0.0000 0.0000 76.0185 -2.8211 -3.4643 17.2999 -0.0001 0.0000 21.4546 0.0031 -0.0001 0.1035 1.8579 -10.5485 177.8303 3.0797 -176.8232 43.5000 -0.0000 0.0000 -14.5718 4.1893 6.2428 42.3722 0.0000 0.0001 78.1189 -4.2501 1.8324 17.3000 -0.0001 0.0001 21.4546 -0.0031 0.0000 6.9019 -2.6037 0.0000 5.5569 -1.7462 0.2275 12.5881 0.0000 -0.0001 0.9434 0.4744 0.7952 12.3432 -0.0001 0.0000 0.7133 -1.0057 0.6238 25.8329 0.0001 0.0001 0.9662 6.3279 -2.4273 11.7667 -0.0000 -0.0000 14.4756 -16.1151 3.2314 19.7459 -1.4803 6.0001 -53.8906 -83.3387 -128.5837 11.2841 -0.0001 -0.0000 -29.5992 77.3930 -31.0136 33.0000 0.0000 -0.0000 -21.6812 -9.0098 -3.7744 25.2001 0.0001 -0.0000 12.8595 1.5532 18.3587 19.7461 -1.4803 -6.0000 -91.3604 80.3767 91.2443 11.2842 -0.0000 -0.0001 -5.8530 -42.2477 15.5160 33.0001 0.0001 0.0001 -13.5128 -8.2367 12.9423 25.1997 0.0001 0.0003 12.2982 10.3537 -7.4738
0.9998 91.5999 0.0000 91.6199 0.6521 92.2224 0.1035 1.8578 10.5485 175.5646 -3.0296 172.9566 43.5000 0.0001 0.0001 -16.0277 0.9075 2.3035 42.3722 0.0000 0.0000 76.0184 -2.8220 -3.4662 17.2999 -0.0001 0.0000 21.4546 0.0031 -0.0001 0.1035 1.8579 -10.5485 177.8304 3.0811 -176.8233 43.5000 -0.0000 0.0000 -14.5718 4.1893 6.2428 42.3722 0.0000 0.0001 78.1193 -4.2509 1.8305 17.3000 -0.0001 0.0001 21.4546 -0.0031 0.0000 6.9019 -2.6037 0.0000 5.5570 -1.7497 0.2272 12.5881 0.0000 -0.0001 0.9434 0.4744 0.7952 12.3432 -0.0001 0.0000 0.7134 -1.0083 0.6235 25.8329 0.0001 0.0001 0.9662 6.3279 -2.4273 11.7667 -0.0000 -0.0000 14.4747 -16.1186 3.2377 19.7459 -1.4803 6.0001 -53.8742 -83.3369 -128.6004 11.2841 -0.0001 -0.0000 -29.5847 77.3942 -30.9986 33.0000 0.0000 -0.0000 -21.6812 -9.0098 -3.7744 25.2001 0.0001 -0.0000 12.8595 1.5532 18.3587 19.7461 -1.4803 -6.0000 -91.3760 80.3769 91.2287 11.2842 -0.0000 -0.0001 -5.9258 -43.2426 15.5247 33.0001 0.0001 0.0001 -12.5981 -14.0066 14.0087 25.1997 0.0001 0.0003 12.2982 10.3537 -7.4738
0.9945 91.5984 0.0000 91.6094 0.6521 92.2224 0.1035 1.8578 10.5485 175.5644 -3.0338 172.9570 43.5000 0.0001 0.0001 -16.0277 0.9075 2.3035 42.3722 0.0000 0.0000 76.0189 -2.8193 -3.4605 17.2999 -0.0001 0.0000 21.4546 0.0031 -0.0001 0.1035 1.8579 -10.5485 177.8302 3.0769 -176.8231 43.5000 -0.0000 0.0000 -14.5718 4.1893 6.2428 42.3722 0.0000 0.0001 78.1180 -4.2484 1.8363 17.3000 -0.0001 0.0001 21.4546 -0.0031 0.0000 6.9019 -2.6037 0.0000 5.5566 -1.7392 0.2281 12.5881 0.0000 -0.0001 0.9434 0.4744 0.7952 12.3432 -0.0001 0.0000 0.7129 -1.0004 0.6244 25.8329 0.0001 0.0001 0.9662 6.3279 -2.4273 11.7667 -0.0000 -0.0000 14.4773 -16.1083 3.2187 19.7459 -1.4803 6.0001 -53.9233 -83.3423 -128.5504 11.2841 -0.0001 -0.0000 -29.6281 77.3906 -31.0437 33.0000 0.0000 -0.0000 -21.6812 -9.0098 -3.7744 25.2001 0.0001 -0.0000 12.8595 1.5532 18.3587 19.7461 -1.4803 -6.0000 -91.3292 80.3762 91.2756 11.2842 -0.0000 -0.0001 -5.9980 -44.2095 15.5349 33.0001 0.0001 0.0001 -11.7980 -19.6276 14.9983 25.1997 0.0001 0.0003 12.2982 10.3537 -7.4738
0.9823 91.5947 0.0000 91.5849 0.6521 92.2224 0.1035 1.8578 10.5485 175.5640 -3.0435 172.9579 43.5000 0.0001 0.0001 -16.0277 0.9075 2.3035 42.3722 0.0000 0.0000 76.0200 -2.8132 -3.4473 17.2999 -0.0001 0.0000 21.4546 0.0031 -0.0001 0.1035 1.8579 -10.5485 177.8299 3.0672 -176.8226 43.5000 -0.0000 0.0000 -14.5718 4.1893 6.2428 42.3722 0.0000 0.0001 78.1150 -4.2426 1.8496 17.3000 -0.0001 0.0001 21.4546 -0.0031 0.0000 6.9019 -2.6037 0.0000 5.5556 -1.7148 0.2302 12.5881 0.0000 -0.0001 0.9434 0.4744 0.7952 12.3432 -0.0001 0.0000 0.7118 -0.9822 0.6265 25.8329 0.0001 0.0001 0.9662 6.3279 -2.4273 11.7667 -0.0000 -0.0000 14.4831 -16.0843 3.1743 19.7459 -1.4803 6.0001 -54.0378 -83.3546 -128.4339 11.2841 -0.0001 -0.0000 -29.7290 77.3820 -31.1485 33.0000 0.0000 -0.0000 -21.6812 -9.0098 -3.7744 25.2001 0.0001 -0.0000 12.8595 1.5532 18.3587 19.7461 -1.4803 -6.0000 -91.2204 80.3746 91.3846 11.2842 -0.0000 -0.0001 -6.0612 -45.0410 15.5452 33.0001 0.0001 0.0001 -11.1752 -24.4695 15.8245 25.1997 0.0001 0.0003 12.2982 10.3537 -7.4738
